<?xml version="1.0" encoding="utf-8"?> <svg viewBox="79.16 55.526 343.95 376.194" xmlns="http://www.w3.org/2000/svg" xmlns:bx="https://boxy-svg.com"> <defs> <clipPath id="a"> <path d="m239.03 226.605-42.13 24.317a5.085 5.085 0 0 0-2.546 4.406v48.668c0 1.817.968 3.496 2.546 4.406l42.133 24.336a5.1 5.1 0 0 0 5.09 0l42.126-24.336a5.096 5.096 0 0 0 2.54-4.406v-48.668c0-1.816-.97-3.496-2.55-4.406l-42.12-24.317a5.123 5.123 0 0 0-5.1 0"/> </clipPath> <linearGradient id="b" x1="271.97" x2="211.104" y1="217.606" y2="341.772" gradientUnits="userSpaceOnUse"> <stop offset="0.3" stop-color="#3e863d"/> <stop offset="0.5" stop-color="#55934f"/> <stop offset="0.8" stop-color="#5aad45"/> </linearGradient> <clipPath id="c"> <path d="M195.398 307.086c.403.523.907.976 1.5 1.316l36.14 20.875 6.02 3.46c.9.52 1.926.74 2.934.665.336-.027.672-.09 1-.183l44.434-81.36c-.34-.37-.738-.68-1.184-.94l-27.586-15.93-14.582-8.39a5.318 5.318 0 0 0-1.32-.53zm0 0"/> </clipPath> <linearGradient id="d" x1="186.484" x2="297.349" y1="321.381" y2="239.465" gradientUnits="userSpaceOnUse"> <stop offset="0.57" stop-color="#3e863d"/> <stop offset="0.72" stop-color="#619857"/> <stop offset="1" stop-color="#76ac64"/> </linearGradient> <clipPath id="e"> <path d="M241.066 225.953a5.14 5.14 0 0 0-2.035.652l-42.01 24.247 45.3 82.51c.63-.09 1.25-.3 1.81-.624l42.13-24.336a5.105 5.105 0 0 0 2.46-3.476l-46.18-78.89a5.29 5.29 0 0 0-1.03-.102l-.42.02"/> </clipPath> <linearGradient id="f" x1="197.051" x2="288.72" y1="279.652" y2="279.652" gradientUnits="userSpaceOnUse"> <stop offset="0.16" stop-color="#6bbf47"/> <stop offset="0.38" stop-color="#79b461"/> <stop offset="0.47" stop-color="#75ac64"/> <stop offset="0.7" stop-color="#659e5a"/> <stop offset="0.9" stop-color="#3e863d"/> </linearGradient> <filter id="duotone-filter-0" x="-500%" y="-500%" width="1000%" height="1000%" bx:preset="duotone 1 rgb(189,11,145) rgb(252,187,13) 1"> <feColorMatrix type="matrix" result="grayscale" values="1 0 0 0 0 1 0 0 0 0 1 0 0 0 0 0 0 0 1 0"/> <feComponentTransfer color-interpolation-filters="sRGB"> <feFuncR type="gamma" exponent="1.5" amplitude="1" offset="0"/> <feFuncG type="gamma" exponent="1.5" amplitude="1" offset="0"/> <feFuncB type="gamma" exponent="1.5" amplitude="1" offset="0"/> </feComponentTransfer> <feComponentTransfer color-interpolation-filters="sRGB" result="duotone"> <feFuncR type="table" tableValues="0.741 0.988"/> <feFuncG type="table" tableValues="0.043 0.733"/> <feFuncB type="table" tableValues="0.569 0.051"/> <feFuncA type="table" tableValues="0 1"/> </feComponentTransfer> </filter> <filter id="hue-rotate-filter-0" x="-500%" y="-500%" width="1000%" height="1000%" bx:preset="hue-rotate 1 90"> <feColorMatrix type="hueRotate" values="90"/> </filter> <filter id="posterize-filter-0" x="-500%" y="-500%" width="1000%" height="1000%" bx:preset="posterize 1 r 3 0.9"> <feColorMatrix type="saturate" values="0.9"/> <feComponentTransfer> <feFuncR type="discrete" tableValues="0 0.333 0.667 1"/> <feFuncG type="discrete" tableValues=""/> <feFuncB type="discrete" tableValues=""/> </feComponentTransfer> </filter> <filter id="duotone-filter-1" x="-500%" y="-500%" width="1000%" height="1000%" bx:preset="duotone 1 rgb(189,11,145) rgb(252,187,13) 1"> <feColorMatrix type="matrix" result="grayscale" values="1 0 0 0 0 1 0 0 0 0 1 0 0 0 0 0 0 0 1 0"/> <feComponentTransfer color-interpolation-filters="sRGB"> <feFuncR type="gamma" exponent="1.5" amplitude="1" offset="0"/> <feFuncG type="gamma" exponent="1.5" amplitude="1" offset="0"/> <feFuncB type="gamma" exponent="1.5" amplitude="1" offset="0"/> </feComponentTransfer> <feComponentTransfer color-interpolation-filters="sRGB" result="duotone"> <feFuncR type="table" tableValues="0.741 0.988"/> <feFuncG type="table" tableValues="0.043 0.733"/> <feFuncB type="table" tableValues="0.569 0.051"/> <feFuncA type="table" tableValues="0 1"/> </feComponentTransfer> </filter> <filter id="point-light-filter-0" primitiveUnits="objectBoundingBox" x="-500%" y="-500%" width="1000%" height="1000%" bx:preset="point-light 1 0.5 0.5 0.5 70 1 0.2 0 #ffffff"> <feSpecularLighting result="specular-lighting" lighting-color="#ffffff" specularConstant="1" specularExponent="70"> <fePointLight x="0.5" y="0.5" z="0.5"/> </feSpecularLighting> <feDiffuseLighting result="diffuse-lighting" lighting-color="#ffffff" diffuseConstant="0.2"> <fePointLight x="0.5" y="0.5" z="0.5"/> </feDiffuseLighting> <feMerge result="lighting"> <feMergeNode in="diffuse-lighting"/> <feMergeNode in="specular-lighting"/> </feMerge> <feComposite in="SourceGraphic" in2="lighting" operator="arithmetic" k1="1" k2="0" k3="0" k4="0"/> </filter> </defs> <g transform="matrix(1.266645, 0, 0, 1.266645, 53.634037, 78.513863)" style=""> <g transform="matrix(1, 0, 0, 1, 7.424405, -18.14856)"> <g> <path d="M108.026,211.212c-6.086-3.514-12.016-7.161-17.772-10.916c1.617,10.768,3.752,21.044,6.358,30.686 c9.658-2.566,19.632-5.857,29.772-9.844C120.248,218.028,114.118,214.729,108.026,211.212z"/> <path d="M100.895,245.031c1.29,3.744,2.657,7.365,4.108,10.839c10.913,26.138,25.212,41.13,39.23,41.13 s28.317-14.992,39.23-41.13c1.45-3.474,2.818-7.094,4.108-10.839c-14.007-3.757-28.595-8.95-43.338-15.438 C129.49,236.081,114.901,241.274,100.895,245.031z"/> <path d="M162.082,221.137c10.14,3.987,20.113,7.279,29.772,9.844c2.606-9.641,4.741-19.918,6.358-30.686 c-5.755,3.755-11.685,7.402-17.772,10.916C174.347,214.729,168.217,218.028,162.082,221.137z"/> <path d="M249.514,137.753c2.594-2.985,5.038-5.975,7.318-8.964c17.181-22.521,23.014-42.399,16.004-54.54 c-5.493-9.516-19.053-14.576-38.186-14.576c-5.277,0-10.975,0.384-17.049,1.166c-3.733,0.481-7.553,1.107-11.44,1.862 c3.749,14.005,6.545,29.232,8.298,45.239C227.45,117.465,239.257,127.502,249.514,137.753z"/> <path d="M239.492,148.5c-7.053-7.083-14.904-14.075-23.429-20.864c0.375,6.869,0.583,13.829,0.583,20.864 c0,7.035-0.209,13.995-0.583,20.864C224.587,162.575,232.439,155.583,239.492,148.5z"/> <path d="M38.95,137.754c10.257-10.251,22.064-20.288,35.054-29.812c1.753-16.007,4.549-31.234,8.298-45.239 c-3.887-0.755-7.707-1.381-11.44-1.862c-6.071-0.782-11.772-1.167-17.048-1.167c-19.135,0-32.692,5.06-38.186,14.576 c-7.009,12.141-1.177,32.019,16.004,54.54C33.912,131.779,36.356,134.769,38.95,137.754z"/> <path d="M48.974,148.5c7.052,7.083,14.904,14.075,23.429,20.864c-0.375-6.869-0.583-13.829-0.583-20.864 c0-7.035,0.209-13.995,0.583-20.864C63.878,134.425,56.026,141.417,48.974,148.5z"/> <path d="M180.439,85.788c6.086,3.514,12.016,7.161,17.772,10.916c-1.617-10.768-3.752-21.044-6.358-30.686 c-9.658,2.566-19.632,5.857-29.772,9.844C168.217,78.972,174.347,82.271,180.439,85.788z"/> <path d="M126.384,75.863c-10.14-3.987-20.113-7.279-29.772-9.844c-2.606,9.641-4.741,19.918-6.358,30.686 c5.755-3.755,11.685-7.402,17.772-10.916C114.118,82.271,120.248,78.972,126.384,75.863z"/> <path d="M137.61,129.7c-10.366,3.652-15.828,15.057-12.177,25.423c1.769,5.022,5.388,9.054,10.189,11.355 c4.805,2.299,10.212,2.591,15.234,0.822c5.022-1.769,9.054-5.388,11.355-10.189c2.3-4.803,2.592-10.212,0.822-15.234 C159.38,131.511,147.974,126.044,137.61,129.7z"/> <path d="M173.093,98.513c-9.586-5.535-19.25-10.533-28.86-14.987c-9.611,4.454-19.274,9.453-28.86,14.987 c-9.58,5.531-18.75,11.39-27.408,17.482c-0.949,10.556-1.452,21.43-1.452,32.505s0.503,21.949,1.452,32.505 c8.658,6.092,17.828,11.951,27.408,17.482c9.586,5.535,19.25,10.533,28.86,14.987c9.611-4.454,19.274-9.453,28.86-14.987 c9.58-5.531,18.75-11.39,27.408-17.482c0.949-10.556,1.453-21.43,1.453-32.505s-0.503-21.949-1.453-32.505 C191.843,109.903,182.673,104.044,173.093,98.513z M155.739,181.158c-3.764,1.326-7.655,1.985-11.532,1.985 c-5.107,0-10.189-1.144-14.93-3.415c-8.341-3.995-14.628-10.999-17.702-19.723c-6.343-18.007,3.146-37.819,21.152-44.164 c18.007-6.342,37.819,3.145,44.164,21.152C183.235,155.001,173.747,174.813,155.739,181.158z"/> <path d="M182.855,27.763c4.603-1.621,7.029-6.686,5.407-11.288c-1.621-4.604-6.689-7.029-11.288-5.407 c-4.603,1.621-7.029,6.686-5.407,11.288C173.19,26.959,178.256,29.385,182.855,27.763z"/> <path d="M187.571,51.969c-1.113-3.231-2.296-6.349-3.528-9.381c-1.371,0.245-2.744,0.372-4.105,0.372 c-9.71,0-18.822-6.056-22.227-15.722c-0.001,0-0.001,0-0.001,0c-2.544-7.221-1.34-14.868,2.585-20.813 C155.037,2.221,149.615,0,144.233,0c-14.018,0-28.317,14.992-39.23,41.13c-1.45,3.474-2.818,7.094-4.108,10.839 c14.007,3.757,28.595,8.95,43.338,15.438C158.975,60.919,173.564,55.726,187.571,51.969z"/> <path d="M45.273,237.07c-1.211-0.581-2.511-0.873-3.817-0.873c-0.991,0-1.985,0.168-2.947,0.507 c-4.603,1.621-7.028,6.685-5.406,11.288c0.785,2.23,2.392,4.021,4.524,5.041c2.134,1.023,4.536,1.152,6.763,0.366 c4.603-1.621,7.029-6.685,5.407-11.288C49.013,239.881,47.406,238.09,45.273,237.07z"/> <path d="M38.951,159.247c-2.594,2.985-5.038,5.975-7.318,8.964c-17.181,22.521-23.014,42.399-16.004,54.54 c1.718,2.976,4.232,5.51,7.453,7.594c2.657-3.329,6.241-5.981,10.546-7.498c5.931-2.089,12.32-1.744,17.994,0.972 c5.57,2.669,9.78,7.317,11.909,13.101c2.38-0.188,4.821-0.436,7.333-0.759c3.733-0.481,7.553-1.107,11.44-1.862 c-3.749-14.005-6.545-29.232-8.298-45.239C61.015,179.535,49.208,169.498,38.951,159.247z"/> <path d="M283.764,181.307c-1.622-4.603-6.686-7.03-11.288-5.406c-2.23,0.785-4.021,2.392-5.041,4.524 c-1.022,2.132-1.152,4.534-0.366,6.763c1.621,4.604,6.688,7.026,11.288,5.407c2.23-0.785,4.021-2.392,5.041-4.525 C284.42,185.939,284.55,183.536,283.764,181.307z"/> <path d="M275.438,207.792c-9.71,0-18.821-6.055-22.227-15.722c-2.09-5.932-1.743-12.321,0.973-17.993 c0.88-1.837,1.994-3.508,3.273-5.024c-0.212-0.282-0.408-0.56-0.624-0.843c-2.28-2.989-4.724-5.979-7.318-8.964 c-10.257,10.251-22.064,20.288-35.054,29.812c-1.753,16.007-4.549,31.234-8.298,45.239c3.887,0.755,7.707,1.381,11.44,1.862 c28.095,3.618,48.226-1.27,55.235-13.409c2.396-4.149,3.279-9.208,2.732-14.963C275.525,207.787,275.481,207.792,275.438,207.792 z"/> </g> </g> </g> <g style="" transform="matrix(3.259237, 0, 0, 3.259237, -770.424072, -595.062866)"> <g clip-path="url(#a)" transform="matrix(0.35278, 0, 0, 0.35278, 226.227325, 158.159241)"> <path fill="url(#b)" d="m331.363 246.793-118.715-58.19-60.87 124.174L270.49 370.97zm0 0"/> </g> <g clip-path="url(#c)" transform="matrix(0.35278, 0, 0, 0.35278, 226.227325, 158.159241)"> <path fill="url(#d)" d="m144.07 264.004 83.825 113.453 110.86-81.906-83.83-113.45zm0 0"/> </g> <g clip-path="url(#e)" transform="matrix(0.35278, 0, 0, 0.35278, 226.227325, 158.159241)"> <path fill="url(#f)" d="M197.02 225.934v107.43h91.683v-107.43zm0 0"/> </g> </g> <g transform="matrix(0, 0.183722, -0.183722, 0, 187.945175, 195.210129)" style="filter: url(#duotone-filter-0); mix-blend-mode: darken;"> <g> <path style="fill:#8A8895;" d="M496,128H16c-8.837,0-16-7.163-16-16V80c0-8.837,7.163-16,16-16h480c8.837,0,16,7.163,16,16v32 C512,120.837,504.837,128,496,128z"/> </g> <g> <g> <path style="fill:#5C546A;" d="M472,104H40c-4.422,0-8-3.582-8-8s3.578-8,8-8h432c4.422,0,8,3.582,8,8S476.422,104,472,104z"/> </g> </g> <g> <path style="fill:#73D14F;" d="M440,96c-4.422,0-363.578,0-368,0s-8,3.582-8,8v320c0,13.234,10.766,24,24,24h336 c13.234,0,24-10.766,24-24V104C448,99.582,444.422,96,440,96z"/> </g> <g> <path style="fill:#FFEEBB;" d="M112,312c0,4.418,3.578,8,8,8c39.703,0,72,32.301,72,72c0,4.418,3.578,8,8,8h112 c4.422,0,8-3.582,8-8c0-39.699,32.297-72,72-72c4.422,0,8-3.582,8-8V96H112V312z"/> </g> <g> <g> <path style="fill:#859A55;" d="M120,336c-4.422,0-8,3.582-8,8v48c0,4.418,3.578,8,8,8h48c4.422,0,8-3.582,8-8 C176,361.121,150.875,336,120,336z"/> </g> <g> <path style="fill:#859A55;" d="M392,336c-30.875,0-56,25.121-56,56c0,4.418,3.578,8,8,8h48c4.422,0,8-3.582,8-8v-48 C400,339.582,396.422,336,392,336z"/> </g> </g> <g> <circle style="fill:#73D14F;" cx="256" cy="304" r="40"/> </g> <g> <g> <path style="fill:#859A55;" d="M112.367,96c-0.122,2.052-0.367,4.076-0.367,6.154C112,169.447,176.471,224,256,224 s144-54.553,144-121.846c0-2.078,0.122-4.102,0-6.154H112.367z"/> </g> <g> <path style="fill:#73D14F;" d="M112.228,96c-0.121,2.042-0.228,4.086-0.228,6.154c0,41.599,24.676,78.287,62.277,100.271 l17.883-5.571c11.977-3.731,20.833-13.889,22.895-26.264l7.713-46.282c0-12.235-1.158,0,11.077,0V96H112.228z"/> </g> <g> <path style="fill:#FFEEBB;" d="M201.02,96c-0.225,2.026-0.405,4.067-0.405,6.154c0,9.954,2.626,19.294,7.223,27.367 c2.03,3.565,5.73,5.866,9.833,5.866L256,135.384l11.077-22.154L271.385,96H201.02z"/> </g> <g> <path style="fill:#FFEEBB;" d="M223.132,96c-0.225,2.023-0.363,4.072-0.363,6.154c0,30.537,24.848,55.385,55.385,55.385h11.077 c30.537,0,55.384-24.848,55.384-55.385c0-2.082-0.138-4.131-0.363-6.154H223.132z"/> </g> </g> </g> <g transform="matrix(0, -0.183722, 0.183722, 0, 302.412872, 290.750671)" style="filter: url(#duotone-filter-0); mix-blend-mode: darken;"> <g> <path style="fill:#8A8895;" d="M496,128H16c-8.837,0-16-7.163-16-16V80c0-8.837,7.163-16,16-16h480c8.837,0,16,7.163,16,16v32 C512,120.837,504.837,128,496,128z"/> </g> <g> <g> <path style="fill:#5C546A;" d="M472,104H40c-4.422,0-8-3.582-8-8s3.578-8,8-8h432c4.422,0,8,3.582,8,8S476.422,104,472,104z"/> </g> </g> <g> <path style="fill:#73D14F;" d="M440,96c-4.422,0-363.578,0-368,0s-8,3.582-8,8v320c0,13.234,10.766,24,24,24h336 c13.234,0,24-10.766,24-24V104C448,99.582,444.422,96,440,96z"/> </g> <g> <path style="fill:#FFEEBB;" d="M112,312c0,4.418,3.578,8,8,8c39.703,0,72,32.301,72,72c0,4.418,3.578,8,8,8h112 c4.422,0,8-3.582,8-8c0-39.699,32.297-72,72-72c4.422,0,8-3.582,8-8V96H112V312z"/> </g> <g> <g> <path style="fill:#859A55;" d="M120,336c-4.422,0-8,3.582-8,8v48c0,4.418,3.578,8,8,8h48c4.422,0,8-3.582,8-8 C176,361.121,150.875,336,120,336z"/> </g> <g> <path style="fill:#859A55;" d="M392,336c-30.875,0-56,25.121-56,56c0,4.418,3.578,8,8,8h48c4.422,0,8-3.582,8-8v-48 C400,339.582,396.422,336,392,336z"/> </g> </g> <g> <circle style="fill:#73D14F;" cx="256" cy="304" r="40"/> </g> <g> <g> <path style="fill:#859A55;" d="M112.367,96c-0.122,2.052-0.367,4.076-0.367,6.154C112,169.447,176.471,224,256,224 s144-54.553,144-121.846c0-2.078,0.122-4.102,0-6.154H112.367z"/> </g> <g> <path style="fill:#73D14F;" d="M112.228,96c-0.121,2.042-0.228,4.086-0.228,6.154c0,41.599,24.676,78.287,62.277,100.271 l17.883-5.571c11.977-3.731,20.833-13.889,22.895-26.264l7.713-46.282c0-12.235-1.158,0,11.077,0V96H112.228z"/> </g> <g> <path style="fill:#FFEEBB;" d="M201.02,96c-0.225,2.026-0.405,4.067-0.405,6.154c0,9.954,2.626,19.294,7.223,27.367 c2.03,3.565,5.73,5.866,9.833,5.866L256,135.384l11.077-22.154L271.385,96H201.02z"/> </g> <g> <path style="fill:#FFEEBB;" d="M223.132,96c-0.225,2.023-0.363,4.072-0.363,6.154c0,30.537,24.848,55.385,55.385,55.385h11.077 c30.537,0,55.384-24.848,55.384-55.385c0-2.082-0.138-4.131-0.363-6.154H223.132z"/> </g> </g> </g> <g transform="matrix(-0.158394, -0.093087, 0.093087, -0.158394, 315.272339, 220.672302)" style="filter: url(#hue-rotate-filter-0); mix-blend-mode: darken;"> <g> <path style="fill:#8A8895;" d="M496,128H16c-8.837,0-16-7.163-16-16V80c0-8.837,7.163-16,16-16h480c8.837,0,16,7.163,16,16v32 C512,120.837,504.837,128,496,128z"/> </g> <g> <g> <path style="fill:#5C546A;" d="M472,104H40c-4.422,0-8-3.582-8-8s3.578-8,8-8h432c4.422,0,8,3.582,8,8S476.422,104,472,104z"/> </g> </g> <g> <path style="fill:#73D14F;" d="M440,96c-4.422,0-363.578,0-368,0s-8,3.582-8,8v320c0,13.234,10.766,24,24,24h336 c13.234,0,24-10.766,24-24V104C448,99.582,444.422,96,440,96z"/> </g> <g> <path style="fill:#FFEEBB;" d="M112,312c0,4.418,3.578,8,8,8c39.703,0,72,32.301,72,72c0,4.418,3.578,8,8,8h112 c4.422,0,8-3.582,8-8c0-39.699,32.297-72,72-72c4.422,0,8-3.582,8-8V96H112V312z"/> </g> <g> <g> <path style="fill:#859A55;" d="M120,336c-4.422,0-8,3.582-8,8v48c0,4.418,3.578,8,8,8h48c4.422,0,8-3.582,8-8 C176,361.121,150.875,336,120,336z"/> </g> <g> <path style="fill:#859A55;" d="M392,336c-30.875,0-56,25.121-56,56c0,4.418,3.578,8,8,8h48c4.422,0,8-3.582,8-8v-48 C400,339.582,396.422,336,392,336z"/> </g> </g> <g> <circle style="fill:#73D14F;" cx="256" cy="304" r="40"/> </g> <g> <g> <path style="fill:#859A55;" d="M112.367,96c-0.122,2.052-0.367,4.076-0.367,6.154C112,169.447,176.471,224,256,224 s144-54.553,144-121.846c0-2.078,0.122-4.102,0-6.154H112.367z"/> </g> <g> <path style="fill:#73D14F;" d="M112.228,96c-0.121,2.042-0.228,4.086-0.228,6.154c0,41.599,24.676,78.287,62.277,100.271 l17.883-5.571c11.977-3.731,20.833-13.889,22.895-26.264l7.713-46.282c0-12.235-1.158,0,11.077,0V96H112.228z"/> </g> <g> <path style="fill:#FFEEBB;" d="M201.02,96c-0.225,2.026-0.405,4.067-0.405,6.154c0,9.954,2.626,19.294,7.223,27.367 c2.03,3.565,5.73,5.866,9.833,5.866L256,135.384l11.077-22.154L271.385,96H201.02z"/> </g> <g> <path style="fill:#FFEEBB;" d="M223.132,96c-0.225,2.023-0.363,4.072-0.363,6.154c0,30.537,24.848,55.385,55.385,55.385h11.077 c30.537,0,55.384-24.848,55.384-55.385c0-2.082-0.138-4.131-0.363-6.154H223.132z"/> </g> </g> </g> <g transform="matrix(0.158394, 0.093087, -0.093087, 0.158394, 176.385468, 270.537842)" style="filter: url(#hue-rotate-filter-0); mix-blend-mode: darken;"> <g> <path style="fill:#8A8895;" d="M496,128H16c-8.837,0-16-7.163-16-16V80c0-8.837,7.163-16,16-16h480c8.837,0,16,7.163,16,16v32 C512,120.837,504.837,128,496,128z"/> </g> <g> <g> <path style="fill:#5C546A;" d="M472,104H40c-4.422,0-8-3.582-8-8s3.578-8,8-8h432c4.422,0,8,3.582,8,8S476.422,104,472,104z"/> </g> </g> <g> <path style="fill:#73D14F;" d="M440,96c-4.422,0-363.578,0-368,0s-8,3.582-8,8v320c0,13.234,10.766,24,24,24h336 c13.234,0,24-10.766,24-24V104C448,99.582,444.422,96,440,96z"/> </g> <g> <path style="fill:#FFEEBB;" d="M112,312c0,4.418,3.578,8,8,8c39.703,0,72,32.301,72,72c0,4.418,3.578,8,8,8h112 c4.422,0,8-3.582,8-8c0-39.699,32.297-72,72-72c4.422,0,8-3.582,8-8V96H112V312z"/> </g> <g> <g> <path style="fill:#859A55;" d="M120,336c-4.422,0-8,3.582-8,8v48c0,4.418,3.578,8,8,8h48c4.422,0,8-3.582,8-8 C176,361.121,150.875,336,120,336z"/> </g> <g> <path style="fill:#859A55;" d="M392,336c-30.875,0-56,25.121-56,56c0,4.418,3.578,8,8,8h48c4.422,0,8-3.582,8-8v-48 C400,339.582,396.422,336,392,336z"/> </g> </g> <g> <circle style="fill:#73D14F;" cx="256" cy="304" r="40"/> </g> <g> <g> <path style="fill:#859A55;" d="M112.367,96c-0.122,2.052-0.367,4.076-0.367,6.154C112,169.447,176.471,224,256,224 s144-54.553,144-121.846c0-2.078,0.122-4.102,0-6.154H112.367z"/> </g> <g> <path style="fill:#73D14F;" d="M112.228,96c-0.121,2.042-0.228,4.086-0.228,6.154c0,41.599,24.676,78.287,62.277,100.271 l17.883-5.571c11.977-3.731,20.833-13.889,22.895-26.264l7.713-46.282c0-12.235-1.158,0,11.077,0V96H112.228z"/> </g> <g> <path style="fill:#FFEEBB;" d="M201.02,96c-0.225,2.026-0.405,4.067-0.405,6.154c0,9.954,2.626,19.294,7.223,27.367 c2.03,3.565,5.73,5.866,9.833,5.866L256,135.384l11.077-22.154L271.385,96H201.02z"/> </g> <g> <path style="fill:#FFEEBB;" d="M223.132,96c-0.225,2.023-0.363,4.072-0.363,6.154c0,30.537,24.848,55.385,55.385,55.385h11.077 c30.537,0,55.384-24.848,55.384-55.385c0-2.082-0.138-4.131-0.363-6.154H223.132z"/> </g> </g> </g> <g transform="matrix(0.158824, -0.092352, 0.092352, 0.158824, 233.779129, 317.618652)" style="filter: url(#posterize-filter-0); mix-blend-mode: darken;"> <g> <path style="fill:#8A8895;" d="M496,128H16c-8.837,0-16-7.163-16-16V80c0-8.837,7.163-16,16-16h480c8.837,0,16,7.163,16,16v32 C512,120.837,504.837,128,496,128z"/> </g> <g> <g> <path style="fill:#5C546A;" d="M472,104H40c-4.422,0-8-3.582-8-8s3.578-8,8-8h432c4.422,0,8,3.582,8,8S476.422,104,472,104z"/> </g> </g> <g> <path style="fill:#73D14F;" d="M440,96c-4.422,0-363.578,0-368,0s-8,3.582-8,8v320c0,13.234,10.766,24,24,24h336 c13.234,0,24-10.766,24-24V104C448,99.582,444.422,96,440,96z"/> </g> <g> <path style="fill:#FFEEBB;" d="M112,312c0,4.418,3.578,8,8,8c39.703,0,72,32.301,72,72c0,4.418,3.578,8,8,8h112 c4.422,0,8-3.582,8-8c0-39.699,32.297-72,72-72c4.422,0,8-3.582,8-8V96H112V312z"/> </g> <g> <g> <path style="fill:#859A55;" d="M120,336c-4.422,0-8,3.582-8,8v48c0,4.418,3.578,8,8,8h48c4.422,0,8-3.582,8-8 C176,361.121,150.875,336,120,336z"/> </g> <g> <path style="fill:#859A55;" d="M392,336c-30.875,0-56,25.121-56,56c0,4.418,3.578,8,8,8h48c4.422,0,8-3.582,8-8v-48 C400,339.582,396.422,336,392,336z"/> </g> </g> <g> <circle style="fill:#73D14F;" cx="256" cy="304" r="40"/> </g> <g> <g> <path style="fill:#859A55;" d="M112.367,96c-0.122,2.052-0.367,4.076-0.367,6.154C112,169.447,176.471,224,256,224 s144-54.553,144-121.846c0-2.078,0.122-4.102,0-6.154H112.367z"/> </g> <g> <path style="fill:#73D14F;" d="M112.228,96c-0.121,2.042-0.228,4.086-0.228,6.154c0,41.599,24.676,78.287,62.277,100.271 l17.883-5.571c11.977-3.731,20.833-13.889,22.895-26.264l7.713-46.282c0-12.235-1.158,0,11.077,0V96H112.228z"/> </g> <g> <path style="fill:#FFEEBB;" d="M201.02,96c-0.225,2.026-0.405,4.067-0.405,6.154c0,9.954,2.626,19.294,7.223,27.367 c2.03,3.565,5.73,5.866,9.833,5.866L256,135.384l11.077-22.154L271.385,96H201.02z"/> </g> <g> <path style="fill:#FFEEBB;" d="M223.132,96c-0.225,2.023-0.363,4.072-0.363,6.154c0,30.537,24.848,55.385,55.385,55.385h11.077 c30.537,0,55.384-24.848,55.384-55.385c0-2.082-0.138-4.131-0.363-6.154H223.132z"/> </g> </g> </g> <g transform="matrix(-0.158824, 0.092352, -0.092352, -0.158824, 258.149261, 169.045013)" style="filter: url(#posterize-filter-0); mix-blend-mode: darken;"> <g> <path style="fill:#8A8895;" d="M496,128H16c-8.837,0-16-7.163-16-16V80c0-8.837,7.163-16,16-16h480c8.837,0,16,7.163,16,16v32 C512,120.837,504.837,128,496,128z"/> </g> <g> <g> <path style="fill:#5C546A;" d="M472,104H40c-4.422,0-8-3.582-8-8s3.578-8,8-8h432c4.422,0,8,3.582,8,8S476.422,104,472,104z"/> </g> </g> <g> <path style="fill:#73D14F;" d="M440,96c-4.422,0-363.578,0-368,0s-8,3.582-8,8v320c0,13.234,10.766,24,24,24h336 c13.234,0,24-10.766,24-24V104C448,99.582,444.422,96,440,96z"/> </g> <g> <path style="fill:#FFEEBB;" d="M112,312c0,4.418,3.578,8,8,8c39.703,0,72,32.301,72,72c0,4.418,3.578,8,8,8h112 c4.422,0,8-3.582,8-8c0-39.699,32.297-72,72-72c4.422,0,8-3.582,8-8V96H112V312z"/> </g> <g> <g> <path style="fill:#859A55;" d="M120,336c-4.422,0-8,3.582-8,8v48c0,4.418,3.578,8,8,8h48c4.422,0,8-3.582,8-8 C176,361.121,150.875,336,120,336z"/> </g> <g> <path style="fill:#859A55;" d="M392,336c-30.875,0-56,25.121-56,56c0,4.418,3.578,8,8,8h48c4.422,0,8-3.582,8-8v-48 C400,339.582,396.422,336,392,336z"/> </g> </g> <g> <circle style="fill:#73D14F;" cx="256" cy="304" r="40"/> </g> <g> <g> <path style="fill:#859A55;" d="M112.367,96c-0.122,2.052-0.367,4.076-0.367,6.154C112,169.447,176.471,224,256,224 s144-54.553,144-121.846c0-2.078,0.122-4.102,0-6.154H112.367z"/> </g> <g> <path style="fill:#73D14F;" d="M112.228,96c-0.121,2.042-0.228,4.086-0.228,6.154c0,41.599,24.676,78.287,62.277,100.271 l17.883-5.571c11.977-3.731,20.833-13.889,22.895-26.264l7.713-46.282c0-12.235-1.158,0,11.077,0V96H112.228z"/> </g> <g> <path style="fill:#FFEEBB;" d="M201.02,96c-0.225,2.026-0.405,4.067-0.405,6.154c0,9.954,2.626,19.294,7.223,27.367 c2.03,3.565,5.73,5.866,9.833,5.866L256,135.384l11.077-22.154L271.385,96H201.02z"/> </g> <g> <path style="fill:#FFEEBB;" d="M223.132,96c-0.225,2.023-0.363,4.072-0.363,6.154c0,30.537,24.848,55.385,55.385,55.385h11.077 c30.537,0,55.384-24.848,55.384-55.385c0-2.082-0.138-4.131-0.363-6.154H223.132z"/> </g> </g> </g> <path d="M 216.93159560546874 229.04281245117187 L 235.18439560546875 249.57721245117187 L 235.18439560546875 228.64601245117188 L 235.68039560546876 228.64601245117188 L 235.68039560546876 255.43001245117188 L 235.18439560546875 255.43001245117188 L 235.18439560546875 250.32121245117187 L 216.43559560546876 229.29081245117186 Q 216.38599560546876 229.24121245117186 216.31159560546874 229.19161245117186 Q 216.23719560546874 229.14201245117187 216.18759560546874 229.14201245117187 Q 216.13799560546875 229.14201245117187 216.11319560546875 229.19161245117186 Q 216.08839560546875 229.24121245117186 216.08839560546875 229.29081245117186 L 216.08839560546875 255.43001245117188 L 215.59239560546877 255.43001245117188 L 215.59239560546877 229.19161245117186 Q 215.59239560546877 228.89401245117188 215.79079560546876 228.74521245117188 Q 215.98919560546875 228.5964124511719 216.18759560546874 228.5964124511719 Q 216.38599560546876 228.5964124511719 216.53479560546876 228.69561245117188 Q 216.68359560546875 228.79481245117188 216.93159560546874 229.04281245117187 Z M 219.60999560546875 259.8940124511719 Q 220.55239560546875 259.8940124511719 220.97399560546876 259.47241245117186 Q 221.39559560546874 259.05081245117185 221.39559560546874 258.1084124511719 L 221.39559560546874 241.74041245117186 L 229.87719560546876 252.00761245117187 L 229.87719560546876 258.1084124511719 Q 229.87719560546876 259.05081245117185 230.29879560546874 259.47241245117186 Q 230.72039560546875 259.8940124511719 231.66279560546874 259.8940124511719 L 239.10279560546877 259.8940124511719 Q 240.04519560546876 259.8940124511719 240.46679560546875 259.47241245117186 Q 240.88839560546876 259.05081245117185 240.88839560546876 258.1084124511719 L 240.88839560546876 225.96761245117187 Q 240.88839560546876 225.02521245117188 240.46679560546875 224.60361245117187 Q 240.04519560546876 224.1820124511719 239.10279560546877 224.1820124511719 L 231.66279560546874 224.1820124511719 Q 230.72039560546875 224.1820124511719 230.29879560546874 224.60361245117187 Q 229.87719560546876 225.02521245117188 229.87719560546876 225.96761245117187 L 229.87719560546876 236.53241245117187 L 220.25479560546876 225.52121245117186 Q 219.60999560546875 224.77721245117186 218.94039560546875 224.47961245117187 Q 218.27079560546875 224.1820124511719 217.32839560546876 224.1820124511719 L 212.16999560546876 224.1820124511719 Q 211.22759560546876 224.1820124511719 210.80599560546875 224.60361245117187 Q 210.38439560546874 225.02521245117188 210.38439560546874 225.96761245117187 L 210.38439560546874 258.1084124511719 Q 210.38439560546874 259.05081245117185 210.80599560546875 259.47241245117186 Q 211.22759560546876 259.8940124511719 212.16999560546876 259.8940124511719 Z M 221.19719560546875 259.9436124511719 L 214.74919560546874 265.3004124511719 Q 214.55079560546875 265.4988124511719 214.12919560546874 265.6476124511719 Q 213.70759560546875 265.7964124511719 213.21159560546874 265.7964124511719 L 205.77159560546875 265.7964124511719 Q 204.58119560546876 265.7964124511719 204.03559560546876 265.2508124511719 Q 203.48999560546875 264.70521245117186 203.48999560546875 263.51481245117185 L 203.48999560546875 231.37401245117186 Q 203.48999560546875 230.72921245117186 203.66359560546874 230.28281245117188 Q 203.83719560546876 229.83641245117187 204.18439560546875 229.53881245117188 L 210.58279560546876 224.1324124511719 Q 210.83079560546875 223.93401245117187 211.25239560546876 223.81001245117187 Q 211.67399560546875 223.68601245117188 212.16999560546876 223.68601245117188 L 217.32839560546876 223.68601245117188 Q 218.41959560546874 223.68601245117188 219.16359560546874 224.03321245117186 Q 219.90759560546874 224.38041245117188 220.65159560546874 225.17401245117188 L 224.07399560546875 229.14201245117187 L 230.07559560546875 224.1324124511719 Q 230.32359560546877 223.93401245117187 230.74519560546875 223.81001245117187 Q 231.16679560546876 223.68601245117188 231.66279560546874 223.68601245117188 L 239.10279560546877 223.68601245117188 Q 240.29319560546875 223.68601245117188 240.83879560546876 224.23161245117188 Q 241.38439560546874 224.77721245117186 241.38439560546874 225.96761245117187 L 241.38439560546874 258.1084124511719 Q 241.38439560546874 258.75321245117186 241.21079560546875 259.1996124511719 Q 241.03719560546875 259.6460124511719 240.68999560546877 259.9436124511719 L 234.24199560546876 265.3004124511719 Q 234.04359560546874 265.4988124511719 233.62199560546875 265.6476124511719 Q 233.20039560546874 265.7964124511719 232.70439560546876 265.7964124511719 L 225.26439560546876 265.7964124511719 Q 224.07399560546875 265.7964124511719 223.52839560546875 265.2508124511719 Q 222.98279560546877 264.70521245117186 222.98279560546877 263.51481245117185 L 222.98279560546877 257.61241245117185 L 221.89159560546875 256.2732124511719 L 221.89159560546875 258.1084124511719 Q 221.89159560546875 258.75321245117186 221.71799560546876 259.1996124511719 Q 221.54439560546876 259.6460124511719 221.19719560546875 259.9436124511719 Z M 270.14539919433594 240.79801245117187 Q 271.03819919433596 240.79801245117187 271.43499919433594 240.4012124511719 Q 271.83179919433593 240.00441245117187 272.67499919433595 238.71481245117187 L 278.72619919433595 229.48921245117188 Q 279.02379919433594 228.99321245117187 279.39579919433595 228.81961245117188 Q 279.76779919433596 228.64601245117188 280.16459919433595 228.64601245117188 L 281.0077991943359 228.64601245117188 Q 281.70219919433595 228.64601245117188 282.02459919433596 229.01801245117187 Q 282.3469991943359 229.39001245117186 282.3469991943359 230.18361245117188 L 282.3469991943359 255.43001245117188 L 281.85099919433594 255.43001245117188 L 281.85099919433594 230.18361245117188 Q 281.85099919433594 229.78681245117187 281.6773991943359 229.46441245117188 Q 281.50379919433595 229.14201245117187 281.0077991943359 229.14201245117187 L 280.26379919433595 229.14201245117187 Q 279.91659919433596 229.14201245117187 279.6685991943359 229.24121245117186 Q 279.4205991943359 229.34041245117186 279.12299919433593 229.83641245117187 L 273.07179919433594 238.96281245117189 Q 272.1789991943359 240.30201245117186 271.70779919433596 240.79801245117187 Q 271.23659919433595 241.29401245117188 270.14539919433594 241.29401245117188 Q 269.0541991943359 241.29401245117188 268.5829991943359 240.79801245117187 Q 268.11179919433596 240.30201245117186 267.21899919433594 238.96281245117189 L 261.16779919433594 229.83641245117187 Q 260.87019919433595 229.34041245117186 260.59739919433594 229.24121245117186 Q 260.3245991943359 229.14201245117187 259.97739919433593 229.14201245117187 L 259.23339919433596 229.14201245117187 Q 258.7373991943359 229.14201245117187 258.5885991943359 229.46441245117188 Q 258.43979919433593 229.78681245117187 258.43979919433593 230.18361245117188 L 258.43979919433593 255.43001245117188 L 257.94379919433595 255.43001245117188 L 257.94379919433595 230.18361245117188 Q 257.94379919433595 229.39001245117186 258.26619919433597 229.01801245117187 Q 258.5885991943359 228.64601245117188 259.23339919433596 228.64601245117188 L 260.0765991943359 228.64601245117188 Q 260.4733991943359 228.64601245117188 260.87019919433595 228.81961245117188 Q 261.26699919433594 228.99321245117187 261.5645991943359 229.48921245117188 L 267.6157991943359 238.71481245117187 Q 268.45899919433595 240.00441245117187 268.85579919433593 240.4012124511719 Q 269.2525991943359 240.79801245117187 270.14539919433594 240.79801245117187 Z M 261.8621991943359 259.8940124511719 Q 262.80459919433594 259.8940124511719 263.22619919433595 259.47241245117186 Q 263.64779919433596 259.05081245117185 263.64779919433596 258.1084124511719 L 263.64779919433596 240.64921245117188 L 266.57419919433596 246.05561245117187 Q 267.02059919433594 246.89881245117186 267.64059919433595 247.27081245117188 Q 268.26059919433595 247.64281245117186 269.2029991943359 247.64281245117186 L 271.18699919433595 247.64281245117186 Q 272.1293991943359 247.64281245117186 272.7493991943359 247.27081245117188 Q 273.3693991943359 246.89881245117186 273.81579919433597 246.05561245117187 L 276.74219919433597 240.64921245117188 L 276.74219919433597 258.1084124511719 Q 276.74219919433597 259.05081245117185 277.1637991943359 259.47241245117186 Q 277.58539919433593 259.8940124511719 278.52779919433596 259.8940124511719 L 286.16619919433595 259.8940124511719 Q 287.10859919433597 259.8940124511719 287.5301991943359 259.47241245117186 Q 287.95179919433593 259.05081245117185 287.95179919433593 258.1084124511719 L 287.95179919433593 225.96761245117187 Q 287.95179919433593 225.02521245117188 287.5301991943359 224.60361245117187 Q 287.10859919433597 224.1820124511719 286.16619919433595 224.1820124511719 L 278.1309991943359 224.1820124511719 Q 277.33739919433594 224.1820124511719 276.81659919433594 224.52921245117187 Q 276.2957991943359 224.87641245117186 275.84939919433594 225.67001245117189 L 271.43499919433594 233.75481245117186 Q 271.18699919433595 234.20121245117187 271.01339919433593 234.39961245117186 Q 270.8397991943359 234.59801245117188 270.5421991943359 234.59801245117188 L 270.09579919433594 234.59801245117188 Q 269.79819919433595 234.59801245117188 269.62459919433593 234.39961245117186 Q 269.45099919433596 234.20121245117187 269.2029991943359 233.75481245117186 L 264.7389991943359 225.67001245117189 Q 264.29259919433593 224.87641245117186 263.7717991943359 224.52921245117187 Q 263.2509991943359 224.1820124511719 262.45739919433595 224.1820124511719 L 254.47179919433594 224.1820124511719 Q 253.52939919433595 224.1820124511719 253.10779919433594 224.60361245117187 Q 252.68619919433593 225.02521245117188 252.68619919433593 225.96761245117187 L 252.68619919433593 258.1084124511719 Q 252.68619919433593 259.05081245117185 253.10779919433594 259.47241245117186 Q 253.52939919433595 259.8940124511719 254.47179919433594 259.8940124511719 Z M 263.4493991943359 259.9436124511719 L 257.00139919433593 265.3004124511719 Q 256.80299919433594 265.4988124511719 256.3813991943359 265.6476124511719 Q 255.95979919433594 265.7964124511719 255.46379919433593 265.7964124511719 L 248.07339919433593 265.7964124511719 Q 246.88299919433595 265.7964124511719 246.33739919433594 265.2508124511719 Q 245.79179919433594 264.70521245117186 245.79179919433594 263.51481245117185 L 245.79179919433594 231.37401245117186 Q 245.79179919433594 230.72921245117186 245.96539919433593 230.28281245117188 Q 246.13899919433595 229.83641245117187 246.48619919433594 229.53881245117188 L 252.88459919433595 224.1324124511719 Q 253.13259919433594 223.93401245117187 253.55419919433595 223.81001245117187 Q 253.97579919433593 223.68601245117188 254.47179919433594 223.68601245117188 L 262.45739919433595 223.68601245117188 Q 263.39979919433597 223.68601245117188 264.0197991943359 224.08281245117186 Q 264.6397991943359 224.47961245117187 265.18539919433596 225.42201245117187 L 268.55819919433594 231.62201245117188 L 269.0045991943359 230.82841245117186 Q 269.2029991943359 230.48121245117187 269.42619919433594 230.15881245117188 Q 269.64939919433596 229.83641245117187 269.89739919433595 229.63801245117187 L 276.2957991943359 224.28121245117188 Q 276.6925991943359 223.98361245117187 277.1141991943359 223.83481245117187 Q 277.53579919433594 223.68601245117188 278.1309991943359 223.68601245117188 L 286.16619919433595 223.68601245117188 Q 287.35659919433596 223.68601245117188 287.90219919433594 224.23161245117188 Q 288.44779919433597 224.77721245117186 288.44779919433597 225.96761245117187 L 288.44779919433597 258.1084124511719 Q 288.44779919433597 258.75321245117186 288.27419919433595 259.1996124511719 Q 288.1005991943359 259.6460124511719 287.75339919433594 259.9436124511719 L 281.30539919433596 265.3004124511719 Q 281.1069991943359 265.4988124511719 280.68539919433596 265.6476124511719 Q 280.26379919433595 265.7964124511719 279.76779919433596 265.7964124511719 L 272.1293991943359 265.7964124511719 Q 270.88939919433597 265.7964124511719 270.36859919433596 265.2508124511719 Q 269.84779919433595 264.70521245117186 269.84779919433595 263.51481245117185 L 269.84779919433595 250.42041245117187 L 266.92139919433595 252.85081245117186 Q 266.52459919433596 253.19801245117188 266.00379919433595 253.37161245117187 Q 265.48299919433595 253.54521245117186 264.7885991943359 253.54521245117186 L 264.14379919433594 253.54521245117186 L 264.14379919433594 258.1084124511719 Q 264.14379919433594 258.75321245117186 263.9701991943359 259.1996124511719 Q 263.79659919433595 259.6460124511719 263.4493991943359 259.9436124511719 Z" transform="matrix(1, 0, 0, 1, 0, 0)" style="fill: rgb(51, 51, 51); white-space: pre; filter: url(#duotone-filter-1);"/> <path d="M 217.75659255371093 227.39278803710937 L 236.00939255371094 247.92718803710937 L 236.00939255371094 226.99598803710938 L 236.50539255371095 226.99598803710938 L 236.50539255371095 253.77998803710938 L 236.00939255371094 253.77998803710938 L 236.00939255371094 248.67118803710937 L 217.26059255371095 227.64078803710936 Q 217.21099255371095 227.59118803710936 217.13659255371093 227.54158803710936 Q 217.06219255371093 227.49198803710937 217.01259255371093 227.49198803710937 Q 216.96299255371093 227.49198803710937 216.93819255371093 227.54158803710936 Q 216.91339255371093 227.59118803710936 216.91339255371093 227.64078803710936 L 216.91339255371093 253.77998803710938 L 216.41739255371095 253.77998803710938 L 216.41739255371095 227.54158803710936 Q 216.41739255371095 227.24398803710938 216.61579255371095 227.09518803710938 Q 216.81419255371094 226.9463880371094 217.01259255371093 226.9463880371094 Q 217.21099255371095 226.9463880371094 217.35979255371095 227.04558803710938 Q 217.50859255371094 227.14478803710938 217.75659255371093 227.39278803710937 Z M 220.43499255371094 258.2439880371094 Q 221.37739255371093 258.2439880371094 221.79899255371095 257.82238803710936 Q 222.22059255371093 257.40078803710935 222.22059255371093 256.4583880371094 L 222.22059255371093 240.09038803710936 L 230.70219255371094 250.35758803710937 L 230.70219255371094 256.4583880371094 Q 230.70219255371094 257.40078803710935 231.12379255371093 257.82238803710936 Q 231.54539255371094 258.2439880371094 232.48779255371093 258.2439880371094 L 239.92779255371096 258.2439880371094 Q 240.87019255371095 258.2439880371094 241.29179255371093 257.82238803710936 Q 241.71339255371095 257.40078803710935 241.71339255371095 256.4583880371094 L 241.71339255371095 224.31758803710937 Q 241.71339255371095 223.37518803710938 241.29179255371093 222.95358803710937 Q 240.87019255371095 222.5319880371094 239.92779255371096 222.5319880371094 L 232.48779255371093 222.5319880371094 Q 231.54539255371094 222.5319880371094 231.12379255371093 222.95358803710937 Q 230.70219255371094 223.37518803710938 230.70219255371094 224.31758803710937 L 230.70219255371094 234.88238803710937 L 221.07979255371094 223.87118803710936 Q 220.43499255371094 223.12718803710936 219.76539255371094 222.82958803710937 Q 219.09579255371094 222.5319880371094 218.15339255371094 222.5319880371094 L 212.99499255371094 222.5319880371094 Q 212.05259255371095 222.5319880371094 211.63099255371094 222.95358803710937 Q 211.20939255371093 223.37518803710938 211.20939255371093 224.31758803710937 L 211.20939255371093 256.4583880371094 Q 211.20939255371093 257.40078803710935 211.63099255371094 257.82238803710936 Q 212.05259255371095 258.2439880371094 212.99499255371094 258.2439880371094 Z M 222.02219255371094 258.2935880371094 L 215.57419255371093 263.6503880371094 Q 215.37579255371094 263.8487880371094 214.95419255371093 263.9975880371094 Q 214.53259255371094 264.1463880371094 214.03659255371093 264.1463880371094 L 206.59659255371093 264.1463880371094 Q 205.40619255371095 264.1463880371094 204.86059255371094 263.6007880371094 Q 204.31499255371094 263.05518803710936 204.31499255371094 261.86478803710935 L 204.31499255371094 229.72398803710936 Q 204.31499255371094 229.07918803710936 204.48859255371093 228.63278803710938 Q 204.66219255371095 228.18638803710937 205.00939255371094 227.88878803710938 L 211.40779255371095 222.4823880371094 Q 211.65579255371094 222.28398803710937 212.07739255371095 222.15998803710937 Q 212.49899255371093 222.03598803710938 212.99499255371094 222.03598803710938 L 218.15339255371094 222.03598803710938 Q 219.24459255371093 222.03598803710938 219.98859255371093 222.38318803710936 Q 220.73259255371093 222.73038803710938 221.47659255371093 223.52398803710938 L 224.89899255371094 227.49198803710937 L 230.90059255371094 222.4823880371094 Q 231.14859255371096 222.28398803710937 231.57019255371094 222.15998803710937 Q 231.99179255371095 222.03598803710938 232.48779255371093 222.03598803710938 L 239.92779255371096 222.03598803710938 Q 241.11819255371094 222.03598803710938 241.66379255371095 222.58158803710938 Q 242.20939255371093 223.12718803710936 242.20939255371093 224.31758803710937 L 242.20939255371093 256.4583880371094 Q 242.20939255371093 257.10318803710936 242.03579255371093 257.5495880371094 Q 241.86219255371094 257.9959880371094 241.51499255371095 258.2935880371094 L 235.06699255371095 263.6503880371094 Q 234.86859255371093 263.8487880371094 234.44699255371094 263.9975880371094 Q 234.02539255371093 264.1463880371094 233.52939255371095 264.1463880371094 L 226.08939255371095 264.1463880371094 Q 224.89899255371094 264.1463880371094 224.35339255371093 263.6007880371094 Q 223.80779255371095 263.05518803710936 223.80779255371095 261.86478803710935 L 223.80779255371095 255.96238803710938 L 222.71659255371094 254.62318803710937 L 222.71659255371094 256.4583880371094 Q 222.71659255371094 257.10318803710936 222.54299255371095 257.5495880371094 Q 222.36939255371095 257.9959880371094 222.02219255371094 258.2935880371094 Z M 270.9703961425781 239.14798803710937 Q 271.86319614257815 239.14798803710937 272.25999614257813 238.7511880371094 Q 272.6567961425781 238.35438803710937 273.49999614257814 237.06478803710937 L 279.55119614257814 227.83918803710938 Q 279.8487961425781 227.34318803710937 280.22079614257814 227.16958803710938 Q 280.59279614257815 226.99598803710938 280.98959614257814 226.99598803710938 L 281.8327961425781 226.99598803710938 Q 282.52719614257813 226.99598803710938 282.84959614257815 227.36798803710937 Q 283.1719961425781 227.73998803710936 283.1719961425781 228.53358803710938 L 283.1719961425781 253.77998803710938 L 282.67599614257813 253.77998803710938 L 282.67599614257813 228.53358803710938 Q 282.67599614257813 228.13678803710937 282.5023961425781 227.81438803710938 Q 282.32879614257814 227.49198803710937 281.8327961425781 227.49198803710937 L 281.08879614257813 227.49198803710937 Q 280.74159614257815 227.49198803710937 280.4935961425781 227.59118803710936 Q 280.2455961425781 227.69038803710936 279.9479961425781 228.18638803710937 L 273.8967961425781 237.31278803710939 Q 273.0039961425781 238.65198803710936 272.53279614257815 239.14798803710937 Q 272.06159614257814 239.64398803710938 270.9703961425781 239.64398803710938 Q 269.8791961425781 239.64398803710938 269.4079961425781 239.14798803710937 Q 268.93679614257815 238.65198803710936 268.0439961425781 237.31278803710939 L 261.99279614257813 228.18638803710937 Q 261.69519614257814 227.69038803710936 261.4223961425781 227.59118803710936 Q 261.1495961425781 227.49198803710937 260.8023961425781 227.49198803710937 L 260.05839614257815 227.49198803710937 Q 259.5623961425781 227.49198803710937 259.4135961425781 227.81438803710938 Q 259.2647961425781 228.13678803710937 259.2647961425781 228.53358803710938 L 259.2647961425781 253.77998803710938 L 258.76879614257814 253.77998803710938 L 258.76879614257814 228.53358803710938 Q 258.76879614257814 227.73998803710936 259.09119614257816 227.36798803710937 Q 259.4135961425781 226.99598803710938 260.05839614257815 226.99598803710938 L 260.9015961425781 226.99598803710938 Q 261.2983961425781 226.99598803710938 261.69519614257814 227.16958803710938 Q 262.0919961425781 227.34318803710937 262.3895961425781 227.83918803710938 L 268.4407961425781 237.06478803710937 Q 269.28399614257813 238.35438803710937 269.6807961425781 238.7511880371094 Q 270.0775961425781 239.14798803710937 270.9703961425781 239.14798803710937 Z M 262.6871961425781 258.2439880371094 Q 263.6295961425781 258.2439880371094 264.05119614257814 257.82238803710936 Q 264.47279614257815 257.40078803710935 264.47279614257815 256.4583880371094 L 264.47279614257815 238.99918803710938 L 267.39919614257815 244.40558803710937 Q 267.84559614257813 245.24878803710936 268.46559614257814 245.62078803710938 Q 269.08559614257814 245.99278803710936 270.0279961425781 245.99278803710936 L 272.01199614257814 245.99278803710936 Q 272.9543961425781 245.99278803710936 273.5743961425781 245.62078803710938 Q 274.1943961425781 245.24878803710936 274.64079614257815 244.40558803710937 L 277.56719614257815 238.99918803710938 L 277.56719614257815 256.4583880371094 Q 277.56719614257815 257.40078803710935 277.9887961425781 257.82238803710936 Q 278.4103961425781 258.2439880371094 279.35279614257814 258.2439880371094 L 286.99119614257813 258.2439880371094 Q 287.93359614257815 258.2439880371094 288.3551961425781 257.82238803710936 Q 288.7767961425781 257.40078803710935 288.7767961425781 256.4583880371094 L 288.7767961425781 224.31758803710937 Q 288.7767961425781 223.37518803710938 288.3551961425781 222.95358803710937 Q 287.93359614257815 222.5319880371094 286.99119614257813 222.5319880371094 L 278.9559961425781 222.5319880371094 Q 278.16239614257813 222.5319880371094 277.6415961425781 222.87918803710937 Q 277.1207961425781 223.22638803710936 276.67439614257813 224.01998803710939 L 272.25999614257813 232.10478803710936 Q 272.01199614257814 232.55118803710937 271.8383961425781 232.74958803710936 Q 271.6647961425781 232.94798803710938 271.3671961425781 232.94798803710938 L 270.9207961425781 232.94798803710938 Q 270.62319614257814 232.94798803710938 270.4495961425781 232.74958803710936 Q 270.27599614257815 232.55118803710937 270.0279961425781 232.10478803710936 L 265.5639961425781 224.01998803710939 Q 265.1175961425781 223.22638803710936 264.5967961425781 222.87918803710937 Q 264.0759961425781 222.5319880371094 263.28239614257814 222.5319880371094 L 255.29679614257813 222.5319880371094 Q 254.35439614257814 222.5319880371094 253.93279614257813 222.95358803710937 Q 253.51119614257811 223.37518803710938 253.51119614257811 224.31758803710937 L 253.51119614257811 256.4583880371094 Q 253.51119614257811 257.40078803710935 253.93279614257813 257.82238803710936 Q 254.35439614257814 258.2439880371094 255.29679614257813 258.2439880371094 Z M 264.2743961425781 258.2935880371094 L 257.8263961425781 263.6503880371094 Q 257.6279961425781 263.8487880371094 257.2063961425781 263.9975880371094 Q 256.7847961425781 264.1463880371094 256.2887961425781 264.1463880371094 L 248.89839614257812 264.1463880371094 Q 247.70799614257814 264.1463880371094 247.16239614257813 263.6007880371094 Q 246.61679614257812 263.05518803710936 246.61679614257812 261.86478803710935 L 246.61679614257812 229.72398803710936 Q 246.61679614257812 229.07918803710936 246.79039614257812 228.63278803710938 Q 246.96399614257814 228.18638803710937 247.31119614257813 227.88878803710938 L 253.70959614257814 222.4823880371094 Q 253.95759614257813 222.28398803710937 254.37919614257814 222.15998803710937 Q 254.80079614257812 222.03598803710938 255.29679614257813 222.03598803710938 L 263.28239614257814 222.03598803710938 Q 264.22479614257816 222.03598803710938 264.8447961425781 222.43278803710936 Q 265.4647961425781 222.82958803710937 266.01039614257814 223.77198803710937 L 269.38319614257813 229.97198803710938 L 269.8295961425781 229.17838803710936 Q 270.0279961425781 228.83118803710937 270.2511961425781 228.50878803710938 Q 270.47439614257814 228.18638803710937 270.72239614257813 227.98798803710937 L 277.1207961425781 222.63118803710938 Q 277.5175961425781 222.33358803710937 277.9391961425781 222.18478803710937 Q 278.3607961425781 222.03598803710938 278.9559961425781 222.03598803710938 L 286.99119614257813 222.03598803710938 Q 288.18159614257814 222.03598803710938 288.7271961425781 222.58158803710938 Q 289.27279614257816 223.12718803710936 289.27279614257816 224.31758803710937 L 289.27279614257816 256.4583880371094 Q 289.27279614257816 257.10318803710936 289.09919614257814 257.5495880371094 Q 288.9255961425781 257.9959880371094 288.57839614257813 258.2935880371094 L 282.13039614257815 263.6503880371094 Q 281.9319961425781 263.8487880371094 281.51039614257814 263.9975880371094 Q 281.08879614257813 264.1463880371094 280.59279614257815 264.1463880371094 L 272.9543961425781 264.1463880371094 Q 271.71439614257815 264.1463880371094 271.19359614257814 263.6007880371094 Q 270.67279614257814 263.05518803710936 270.67279614257814 261.86478803710935 L 270.67279614257814 248.77038803710937 L 267.74639614257813 251.20078803710936 Q 267.34959614257815 251.54798803710938 266.82879614257814 251.72158803710937 Q 266.30799614257813 251.89518803710936 265.6135961425781 251.89518803710936 L 264.9687961425781 251.89518803710936 L 264.9687961425781 256.4583880371094 Q 264.9687961425781 257.10318803710936 264.7951961425781 257.5495880371094 Q 264.62159614257814 257.9959880371094 264.2743961425781 258.2935880371094 Z" transform="matrix(1, 0, 0, 1, 0, 0)" style="fill: rgb(51, 51, 51); white-space: pre; filter: url(#point-light-filter-0);"/> </svg> 